<?xml version="1.0" standalone="no"?>
<!DOCTYPE svg PUBLIC "-//W3C//DTD SVG 20010904//EN"
 "http://www.w3.org/TR/2001/REC-SVG-20010904/DTD/svg10.dtd">
<svg version="1.0" xmlns="http://www.w3.org/2000/svg"
 width="512.000000pt" height="512.000000pt" viewBox="0 0 512.000000 512.000000"
 preserveAspectRatio="xMidYMid meet">
<metadata>
Created by potrace 1.14, written by Peter Selinger 2001-2017
</metadata>
<g transform="translate(0.000000,512.000000) scale(0.100000,-0.100000)"
fill="#000000" stroke="none">
<path d="M320 5113 c-65 -24 -81 -103 -31 -146 25 -21 42 -25 137 -30 330 -18
536 -166 604 -433 11 -42 20 -108 20 -147 0 -65 2 -71 34 -103 38 -38 70 -43
116 -19 53 27 60 69 39 222 -42 309 -226 521 -539 619 -102 32 -332 55 -380
37z"/>
<path d="M1040 3318 c0 -932 5 -1021 76 -1236 170 -515 622 -922 1181 -1063
229 -58 257 -59 1269 -59 l924 0 0 804 c0 482 -4 845 -10 907 -75 744 -689
1328 -1500 1429 -53 6 -425 10 -1012 10 l-928 0 0 -792z"/>
<path d="M1076 809 c-114 -27 -237 -132 -276 -237 -31 -83 -25 -195 15 -275
71 -142 228 -226 399 -214 100 6 171 37 244 103 87 78 125 159 126 262 0 66
-4 86 -30 142 -82 172 -284 264 -478 219z m169 -160 c63 -17 112 -56 140 -112
42 -86 29 -157 -45 -228 -162 -158 -437 -12 -375 198 33 111 159 175 280 142z"/>
<path d="M4388 801 c-208 -67 -318 -258 -259 -447 27 -89 77 -155 154 -205 86
-55 150 -72 258 -67 75 3 97 9 155 38 85 44 151 108 189 185 25 52 29 72 30
145 0 77 -3 92 -33 152 -85 173 -302 260 -494 199z m227 -165 c58 -27 88 -57
110 -108 65 -157 -87 -315 -267 -277 -98 21 -167 103 -168 198 -1 155 177 257
325 187z"/>
</g>
</svg>
